<svg width="77" height="77" viewBox="0 0 77 77" fill="none" xmlns="http://www.w3.org/2000/svg">
<circle cx="38.5" cy="38.5" r="38.5" fill="white" fill-opacity="0.1"/>
<path d="M37.9984 52.358C43.5978 52.358 47.676 49.1491 47.6632 44.7259C47.676 41.4531 45.6305 39.1009 41.9615 38.5767V38.3722C44.7995 37.7585 46.7044 35.6491 46.6916 32.7088C46.7044 28.7202 43.3038 25.4602 38.0751 25.4602C32.987 25.4602 29.0495 28.4901 28.9473 32.875H33.5112C33.5879 30.6761 35.6333 29.3082 38.0495 29.3082C40.4913 29.3082 42.1149 30.7912 42.1021 32.9901C42.1149 35.2784 40.2228 36.7997 37.5126 36.7997H35.1987V40.456H37.5126C40.8237 40.456 42.7924 42.1179 42.7797 44.483C42.7924 46.7969 40.7853 48.3821 37.9856 48.3821C35.3521 48.3821 33.3194 47.0142 33.2044 44.8793H28.3975C28.5254 49.3026 32.4757 52.358 37.9984 52.358Z" fill="white"/>
</svg>
