<svg width="341" height="312" viewBox="0 0 341 312" fill="none" xmlns="http://www.w3.org/2000/svg">
<g clip-path="url(#clip0)">
<path d="M170.496 312C264.659 312 340.993 307.777 340.993 302.568C340.993 297.359 264.659 293.136 170.496 293.136C76.3338 293.136 0 297.359 0 302.568C0 307.777 76.3338 312 170.496 312Z" fill="#FFF1E2"/>
<path d="M123.379 48.1768C174.829 39.0053 216.001 55.8705 232.001 78.5169C248.001 101.163 275.278 86.6742 298.012 116.478C320.747 146.282 321.499 219.843 213.911 225.182C106.33 230.522 51.7326 214.975 40.3329 182.287C28.9332 149.6 35.624 63.8178 123.379 48.1768Z" fill="#FFF1E2"/>
<path d="M107.878 68.0771C107.878 68.0771 124.254 110.052 191.705 116.326C259.155 122.599 282.172 100.243 305.695 106.763" stroke="#FF9A8D" stroke-miterlimit="10" stroke-linecap="round" stroke-linejoin="round" stroke-dasharray="5 5"/>
<path d="M89.281 69.4394L99.9646 54.1099L114.836 49.6256L71.2339 32.8545L89.281 69.4394Z" fill="#FF9A8D"/>
<path d="M71.2339 32.8545L98.6192 56.037L101.701 63.4336L103.046 53.1826L71.2339 32.8545Z" fill="#D66F67"/>
<path d="M95.5884 60.3911L101.701 63.4338L98.6191 56.0371L95.5884 60.3911Z" fill="#EF857D"/>
<path d="M63.296 113.856C74.8653 108.062 79.5547 93.972 73.77 82.3848C67.9854 70.7975 53.9172 66.1008 42.3478 71.8944C30.7785 77.6881 26.0891 91.7781 31.8737 103.365C37.6584 114.953 51.7266 119.649 63.296 113.856Z" stroke="#FF9A8D" stroke-linecap="round" stroke-linejoin="round" stroke-dasharray="5.08 5.08"/>
<path d="M312.175 168.271C318.538 165.664 321.586 158.384 318.982 152.011C316.378 145.638 309.11 142.586 302.747 145.193C296.384 147.801 293.336 155.081 295.94 161.454C298.543 167.827 305.812 170.879 312.175 168.271Z" stroke="#FF9A8D" stroke-miterlimit="10" stroke-linecap="round" stroke-linejoin="round" stroke-dasharray="5 5"/>
<path d="M146.923 32.1301C153.503 32.1301 158.836 26.788 158.836 20.1983C158.836 13.6086 153.503 8.2666 146.923 8.2666C140.344 8.2666 135.01 13.6086 135.01 20.1983C135.01 26.788 140.344 32.1301 146.923 32.1301Z" fill="#8CD3E8"/>
<path d="M150.815 24.9073C150.207 25.5593 149.375 25.9867 148.312 26.1823V27.9572H145.664V26.2403C144.167 26.0592 142.981 25.6172 142.12 24.9L142.923 23.0962C143.133 23.2918 143.422 23.4946 143.805 23.7047C144.182 23.9148 144.616 24.0959 145.107 24.2408C145.599 24.3857 146.091 24.4581 146.598 24.4581C147.212 24.4581 147.733 24.3205 148.16 24.0379C148.587 23.7627 148.804 23.3207 148.804 22.7194C148.804 22.3862 148.681 22.1037 148.428 21.8718C148.182 21.64 147.878 21.4516 147.523 21.3068C147.169 21.1619 146.706 21.0097 146.135 20.8431C145.361 20.6185 144.695 20.3505 144.131 20.039C143.567 19.7274 143.104 19.3073 142.749 18.7712C142.395 18.2423 142.214 17.5758 142.214 16.7789C142.214 16.1849 142.352 15.6415 142.619 15.1417C142.887 14.6418 143.285 14.2289 143.798 13.8884C144.312 13.5479 144.934 13.3088 145.664 13.1856V11.0195H148.312V13.1929C148.941 13.3088 149.491 13.4972 149.968 13.7362C150.438 13.9825 150.771 14.2289 150.966 14.4752L150.077 16.1921C149.99 16.0762 149.795 15.9168 149.498 15.7285C149.202 15.5401 148.847 15.3735 148.442 15.2286C148.037 15.0837 147.632 15.0113 147.22 15.0113C146.59 15.0113 146.062 15.1489 145.636 15.4242C145.209 15.6995 144.992 16.0979 144.992 16.6195C144.992 17.1774 145.23 17.6048 145.715 17.8946C146.2 18.1916 146.8 18.4162 147.531 18.5828C148.768 18.8726 149.78 19.3507 150.554 20.01C151.328 20.6692 151.719 21.4951 151.719 22.4876C151.719 23.4511 151.422 24.2553 150.815 24.9073Z" fill="white"/>
<path d="M80.3694 174.305H74.0113C72.1741 174.305 70.6768 172.812 70.6768 170.965V164.836H83.6967V170.965C83.6967 172.812 82.2067 174.305 80.3694 174.305Z" fill="#D86A7D"/>
<path d="M95.6893 143.826C95.6893 148.702 93.8014 153.136 90.7273 156.446C89.9533 157.28 89.107 158.033 88.1956 158.714C88.1884 163.292 84.4777 167.009 79.9062 167.009H74.1702C69.5915 167.009 65.8736 163.285 65.8736 158.699V158.475C65.0779 157.859 64.3401 157.185 63.653 156.446C60.5788 153.143 58.6909 148.702 58.6909 143.826C58.6909 133.59 66.9731 125.295 77.1937 125.295C87.4072 125.295 95.6893 133.59 95.6893 143.826Z" fill="#8CD3E8"/>
<path d="M90.7271 156.447C89.9532 157.28 89.1069 158.033 88.1955 158.714C88.1882 163.293 84.4776 167.009 79.9061 167.009H74.1701C69.5914 167.009 65.8735 163.286 65.8735 158.7V158.475C65.0778 157.859 64.34 157.186 63.6528 156.447C65.302 150.514 70.7415 146.152 77.1936 146.152C83.6457 146.152 89.0779 150.514 90.7271 156.447Z" fill="#71BBCC"/>
<path d="M84.6295 143.298H83.6024C83.6024 146.666 80.9984 149.426 77.7072 149.694V143.298C77.7072 143.015 77.4758 142.783 77.1937 142.783C76.9116 142.783 76.6801 143.015 76.6801 143.298V149.694C73.3817 149.434 70.7849 146.666 70.7849 143.298H69.7578C69.7578 147.231 72.8247 150.462 76.6873 150.723V165.966C76.6873 166.248 76.9188 166.48 77.2009 166.48C77.483 166.48 77.7145 166.248 77.7145 165.966V150.723C81.5698 150.455 84.6295 147.231 84.6295 143.298Z" fill="white"/>
<path d="M80.2749 128.266C80.2749 128.266 86.4883 129.128 89.9603 135.409" stroke="white" stroke-width="3" stroke-miterlimit="10" stroke-linecap="round" stroke-linejoin="round"/>
<path d="M91.2769 138.379L91.624 139.234" stroke="white" stroke-width="3" stroke-miterlimit="10" stroke-linecap="round" stroke-linejoin="round"/>
<path d="M305.694 70.7218V63.8322L300.515 62.789C300.334 62.2239 300.11 61.6806 299.864 61.1445L303.162 56.9065L298.67 51.6904L293.73 54.4795C292.92 54.0231 292.059 53.6464 291.162 53.3494L290.019 47.6045H283.141L281.983 53.3422C281.13 53.6247 280.305 53.9797 279.524 54.4071L274.034 51.3064L269.542 56.5225L273.224 61.2532C273.072 61.5864 272.934 61.9342 272.811 62.2819L267.01 63.4555V70.3451L272.529 71.4462C272.71 72.0475 272.927 72.6343 273.173 73.1994L269.318 78.1547L273.81 83.3707L279.531 80.1397C280.052 80.4294 280.602 80.6758 281.159 80.8931L282.461 87.4494H289.339L290.562 81.364C291.321 81.1466 292.059 80.8713 292.761 80.5381L298.439 83.7474L302.931 78.5314L299.495 74.1195C299.893 73.366 300.226 72.5764 300.493 71.7505L305.694 70.7218ZM286.576 74.7497C282.453 74.7497 279.104 71.4028 279.104 67.2661C279.104 63.1368 282.446 59.7825 286.576 59.7825C290.707 59.7825 294.048 63.1295 294.048 67.2661C294.041 71.4028 290.699 74.7497 286.576 74.7497Z" fill="#FF9A8D"/>
<path d="M294.355 75.5391C298.773 71.1143 298.773 63.9404 294.355 59.5156C289.937 55.0908 282.774 55.0908 278.356 59.5156C273.938 63.9404 273.938 71.1143 278.356 75.5391C282.774 79.9639 289.937 79.9639 294.355 75.5391Z" stroke="white" stroke-miterlimit="10" stroke-linecap="round" stroke-linejoin="round"/>
<path d="M189.354 16.5755H186.149V13.3661C186.149 13.1633 185.99 13.0039 185.788 13.0039C185.585 13.0039 185.426 13.1633 185.426 13.3661V16.5755H182.222C182.019 16.5755 181.86 16.7348 181.86 16.9377C181.86 17.1405 182.019 17.2999 182.222 17.2999H185.426V20.5092C185.426 20.7121 185.585 20.8715 185.788 20.8715C185.99 20.8715 186.149 20.7121 186.149 20.5092V17.2999H189.354C189.556 17.2999 189.715 17.1405 189.715 16.9377C189.715 16.7421 189.549 16.5755 189.354 16.5755Z" fill="#FF8968"/>
<path d="M29.3095 140.037H26.1124V136.828C26.1124 136.625 25.9532 136.466 25.7507 136.466C25.5482 136.466 25.389 136.625 25.389 136.828V140.037H22.1847C21.9821 140.037 21.823 140.197 21.823 140.4C21.823 140.602 21.9821 140.762 22.1847 140.762H25.389V143.971C25.389 144.174 25.5482 144.333 25.7507 144.333C25.9532 144.333 26.1124 144.174 26.1124 143.971V140.762H29.3167C29.5192 140.762 29.6784 140.602 29.6784 140.4C29.6711 140.197 29.512 140.037 29.3095 140.037Z" fill="#FF8968"/>
<path d="M290.143 131.474H286.938V128.265C286.938 128.062 286.779 127.902 286.577 127.902C286.374 127.902 286.215 128.062 286.215 128.265V131.474H283.011C282.808 131.474 282.649 131.633 282.649 131.836C282.649 132.039 282.808 132.198 283.011 132.198H286.215V135.408C286.215 135.611 286.374 135.77 286.577 135.77C286.779 135.77 286.938 135.611 286.938 135.408V132.198H290.143C290.345 132.198 290.504 132.039 290.504 131.836C290.504 131.633 290.338 131.474 290.143 131.474Z" fill="#FF8968"/>
<path d="M140.637 72.076C141.964 72.076 143.039 70.9992 143.039 69.6708C143.039 68.3425 141.964 67.2656 140.637 67.2656C139.311 67.2656 138.236 68.3425 138.236 69.6708C138.236 70.9992 139.311 72.076 140.637 72.076Z" fill="#FF9A8D"/>
<path d="M105.201 185.12C106.528 185.12 107.603 184.043 107.603 182.715C107.603 181.386 106.528 180.31 105.201 180.31C103.875 180.31 102.8 181.386 102.8 182.715C102.8 184.043 103.875 185.12 105.201 185.12Z" fill="#FF9A8D"/>
<path d="M63.0817 16.4236H106.019C106.019 16.4236 103.227 9.1284 96.2537 6.17988C89.2808 3.23136 83.8558 8.50538 83.8558 8.50538C83.8558 8.50538 79.0456 -0.869041 69.5917 0.0655032C60.1378 1.00005 57.0419 8.24457 57.0419 8.24457C57.0419 8.24457 46.1919 6.17988 45.1069 16.4309H63.0817V16.4236Z" fill="#FFF1E2"/>
<path d="M272.906 33.3689H308.096C308.096 33.3689 305.81 27.3921 300.096 24.9725C294.381 22.5528 289.933 26.8778 289.933 26.8778C289.933 26.8778 285.991 19.1986 278.244 19.9592C270.497 20.7199 267.958 26.6604 267.958 26.6604C267.958 26.6604 259.068 24.9725 258.179 33.3689H272.906Z" fill="#FFF1E2"/>
<path d="M121.838 197.949L97.5989 214.728L87.0166 271.22H95.3928L108.832 226.42L123.378 222.226L121.838 197.949Z" fill="#D86A7D"/>
<path d="M215.459 197.949L239.697 214.728L250.273 271.22H241.896L228.457 226.42L213.911 222.226L215.459 197.949Z" fill="#D86A7D"/>
<path d="M173.39 222.581H164.818H128.131L132.883 249.697H164.818H173.39H205.325L210.077 222.581H173.39Z" fill="#313280"/>
<path d="M138.706 246.59C137.035 246.59 135.683 245.235 135.683 243.561V232.55C135.683 230.876 137.035 229.521 138.706 229.521C140.377 229.521 141.73 230.876 141.73 232.55V243.561C141.73 245.235 140.377 246.59 138.706 246.59Z" fill="#4343AA"/>
<path d="M151.01 246.59C149.339 246.59 147.986 245.235 147.986 243.561V232.55C147.986 230.876 149.339 229.521 151.01 229.521C152.681 229.521 154.033 230.876 154.033 232.55V243.561C154.033 245.235 152.681 246.59 151.01 246.59Z" fill="#4343AA"/>
<path d="M163.314 246.59C161.643 246.59 160.29 245.235 160.29 243.561V232.55C160.29 230.876 161.643 229.521 163.314 229.521C164.984 229.521 166.337 230.876 166.337 232.55V243.561C166.337 245.235 164.984 246.59 163.314 246.59Z" fill="#4343AA"/>
<path d="M175.618 246.59C173.947 246.59 172.594 245.235 172.594 243.561V232.55C172.594 230.876 173.947 229.521 175.618 229.521C177.289 229.521 178.641 230.876 178.641 232.55V243.561C178.649 245.235 177.289 246.59 175.618 246.59Z" fill="#4343AA"/>
<path d="M187.921 246.59C186.251 246.59 184.898 245.235 184.898 243.561V232.55C184.898 230.876 186.251 229.521 187.921 229.521C189.592 229.521 190.945 230.876 190.945 232.55V243.561C190.952 245.235 189.592 246.59 187.921 246.59Z" fill="#4343AA"/>
<path d="M200.232 246.59C198.562 246.59 197.209 245.235 197.209 243.561V232.55C197.209 230.876 198.562 229.521 200.232 229.521C201.903 229.521 203.256 230.876 203.256 232.55V243.561C203.256 245.235 201.903 246.59 200.232 246.59Z" fill="#4343AA"/>
<path d="M217.824 194.842H118.626C118.626 194.842 118.438 136.842 133.302 92.875V92.8678C134.236 90.1149 135.227 87.4127 136.275 84.7902C139.227 84.2613 142.771 83.7469 146.923 83.3485C151.834 82.8704 157.585 82.5516 164.203 82.5371C165.049 82.5371 165.903 82.5444 166.778 82.5516C171.625 82.6023 176.182 82.7834 180.406 83.0587C184.717 83.334 188.681 83.6962 192.247 84.0947C195.227 84.4352 197.932 84.7974 200.326 85.1524C200.435 85.4204 200.543 85.6957 200.652 85.9855C200.818 86.4129 200.992 86.8693 201.173 87.3402C201.404 87.9633 201.643 88.6008 201.874 89.2383C202.106 89.8831 202.33 90.5206 202.547 91.1291C202.706 91.5855 202.858 92.0274 203.003 92.4404C218.012 136.458 217.824 194.842 217.824 194.842Z" fill="#5454C8"/>
<path d="M209.477 194.842C208.645 210.055 206.743 223.059 205.506 230.34H143.09C140.247 223.4 136.543 211.743 134.554 194.842H172.565C172.92 207.107 172.985 218.937 172.594 229.514H190.952C190.952 229.514 191.22 215.025 190.981 194.842H209.477Z" fill="#9A7BF0"/>
<path d="M190.981 194.841H172.565C171.466 156.496 167.48 113.963 165.281 92.6354C171.343 92.592 177.527 92.5558 183.082 92.5195C188.949 118.281 190.591 163.451 190.981 194.841Z" fill="#7272DB"/>
<path d="M166.533 147.89C180.435 147.89 191.705 136.953 191.705 123.462C191.705 109.97 180.435 99.0332 166.533 99.0332C152.631 99.0332 141.361 109.97 141.361 123.462C141.361 136.953 152.631 147.89 166.533 147.89Z" fill="#4343AA"/>
<path d="M191.712 120.745C191.712 122.983 191.4 125.157 190.815 127.207C190.373 128.757 189.78 130.235 189.042 131.633C185.122 139.138 177.274 144.26 168.225 144.26C155.256 144.26 144.746 133.734 144.746 120.745C144.746 114.507 147.162 108.849 151.118 104.64C152.984 102.641 155.198 100.974 157.672 99.7283C157.672 99.7283 157.672 99.721 157.679 99.721C160.847 98.12 164.435 97.2217 168.225 97.2217C181.194 97.2217 191.712 107.755 191.712 120.745Z" fill="#9A7BF0"/>
<path d="M262.88 271.221H72.3188V283.747H262.88V271.221Z" fill="#FFB5B3"/>
<path d="M272.797 283.746H58.2788V296.272H272.797V283.746Z" fill="#FF9A8D"/>
<path d="M164.204 82.5371C164.464 84.8988 164.84 88.34 165.281 92.636C157.737 92.6867 150.366 92.7374 144.616 92.7881C145.484 89.1151 146.272 85.9203 146.923 83.3485C151.835 82.8704 157.585 82.5516 164.204 82.5371Z" fill="#D86A7D"/>
<path d="M194.873 92.4547C191.603 92.4692 187.546 92.491 183.083 92.5199C182.272 88.9701 181.383 85.7825 180.406 83.0586C184.717 83.3339 188.681 83.6961 192.247 84.0946C192.782 85.7173 193.708 88.5717 194.873 92.4547Z" fill="#D86A7D"/>
<path d="M143.09 230.34H118.626V194.842H134.554C136.543 211.743 140.247 223.4 143.09 230.34Z" fill="#826ADB"/>
<path d="M146.923 83.3486C146.272 85.9204 145.484 89.1153 144.616 92.7883C137.845 92.839 133.303 92.8752 133.303 92.8752V92.8679C134.236 90.115 135.227 87.4128 136.276 84.7903C137.288 84.6092 138.373 84.4281 139.531 84.2542C139.762 84.218 140.001 84.189 140.232 84.1528C142.258 83.8558 144.485 83.5805 146.923 83.3486Z" fill="#BA5B70"/>
<path d="M133.302 178.491C133.527 184.41 133.961 189.85 134.554 194.842H118.626C118.626 194.842 118.438 136.842 133.302 92.875C133.302 92.875 137.845 92.8388 144.615 92.7881C139.682 113.804 132.254 150.636 133.302 178.491Z" fill="#4343AA"/>
<path d="M217.824 194.842V230.34H205.506C206.743 223.059 208.645 210.055 209.477 194.842H217.824Z" fill="#AB97F7"/>
<path d="M203.003 92.4404C202.931 92.4187 199.784 92.4259 194.873 92.4549C193.708 88.5719 192.782 85.7175 192.247 84.0947C195.227 84.4352 197.932 84.7974 200.327 85.1524C200.435 85.4205 200.544 85.6958 200.652 85.9856C200.819 86.413 200.992 86.8694 201.173 87.3403C201.404 87.9633 201.643 88.6008 201.875 89.2383C202.106 89.8831 202.33 90.5206 202.547 91.1292C202.706 91.5856 202.858 92.0275 203.003 92.4404Z" fill="#ED8EA3"/>
<path d="M217.824 194.842H209.477C210.2 181.722 210.113 166.958 208.117 152.787C204.442 126.765 198.511 104.589 194.873 92.4549C199.784 92.4259 202.93 92.4186 203.003 92.4404C218.012 136.458 217.824 194.842 217.824 194.842Z" fill="#7272DB"/>
<path d="M189.042 131.634C185.122 139.139 177.274 144.261 168.225 144.261C155.256 144.261 144.746 133.735 144.746 120.745C144.746 114.508 147.162 108.85 151.118 104.641C151.719 105.611 152.89 107.437 154.568 109.69C152.124 112.711 150.662 116.551 150.662 120.745C150.662 130.46 158.525 138.335 168.225 138.335C174.192 138.335 179.465 135.357 182.626 130.801C184.695 131.3 186.836 131.59 189.042 131.634Z" fill="#826ADB"/>
<path d="M182.627 130.8C179.466 135.357 174.193 138.334 168.225 138.334C158.525 138.334 150.663 130.459 150.663 120.745C150.663 116.55 152.124 112.71 154.569 109.689C159.726 116.637 169.693 127.699 182.627 130.8Z" fill="#FFD00A"/>
<path d="M185.788 120.745C185.788 124.49 184.623 127.953 182.627 130.8C169.694 127.7 159.726 116.637 154.569 109.69C157.78 105.705 162.706 103.155 168.225 103.155C177.925 103.155 185.788 111.03 185.788 120.745Z" fill="#FFE98A"/>
<path d="M183.083 92.5201C177.527 92.5563 171.343 92.5925 165.281 92.636C164.84 88.34 164.464 84.8988 164.204 82.5371C165.05 82.5371 165.903 82.5444 166.779 82.5516C167.929 82.5661 169.064 82.5806 170.186 82.6096C170.33 82.6096 170.482 82.6168 170.627 82.624C172.298 82.6603 173.925 82.7182 175.517 82.7907C177.195 82.8631 178.822 82.9573 180.406 83.0587C181.383 85.7827 182.272 88.9702 183.083 92.5201Z" fill="#ED8EA3"/>
<path d="M190.952 229.514H172.594C172.984 218.937 172.919 207.107 172.565 194.842H190.981C191.22 215.025 190.952 229.514 190.952 229.514Z" fill="#AB97F7"/>
<path d="M190.815 127.207C191.415 116.26 184.334 105.017 173.18 101.184C167.133 99.1053 161.737 99.1125 157.679 99.721C160.847 98.12 164.435 97.2217 168.225 97.2217C181.195 97.2217 191.712 107.755 191.712 120.745C191.712 122.983 191.401 125.157 190.815 127.207Z" fill="#AB97F7"/>
<path d="M97.5991 214.728L104.905 239.533L108.832 226.421L119.241 223.422L118.626 200.174L97.5991 214.728Z" fill="#BA5B70"/>
<path d="M217.824 208.918L233.897 219.893L245.723 271.221H241.897L228.457 226.421L217.824 223.356V208.918Z" fill="#BA5B70"/>
<path d="M17.8951 292.229H21.7794V287.042H12.9475C11.9276 287.042 11.103 286.216 11.103 285.195C11.103 284.174 11.9276 283.348 12.9475 283.348H21.7722V245.002H15.4575C13.6347 245.002 12.1519 243.524 12.1519 241.692C12.1519 239.866 13.6275 238.381 15.4575 238.381H31.7035C33.5263 238.381 35.0091 239.859 35.0091 241.692C35.0091 243.517 33.5335 245.002 31.7035 245.002H25.2875V283.348H35.2985C36.3183 283.348 37.1429 284.174 37.1429 285.195C37.1429 286.216 36.3183 287.042 35.2985 287.042H25.2948V292.229H29.1212C32.8681 292.229 35.9133 295.272 35.9133 299.032H25.2948H21.7794H11.103C11.103 295.279 14.141 292.229 17.8951 292.229Z" fill="#9A7BF0"/>
<path d="M25.8589 286.766L25.1284 288.925C25.1284 288.925 24.5353 289.845 22.8354 289.708C21.1356 289.57 20.7739 288.976 20.7739 288.976L21.1428 286.216L25.8589 286.766Z" fill="#FFB696"/>
<path d="M41.1068 282.217L39.3491 285.1C39.3491 285.1 37.7071 284.984 36.6221 284.455C35.5371 283.934 35.2261 283.209 35.2261 283.209L36.6366 280.471L41.1068 282.217Z" fill="#FFB696"/>
<path d="M39.6166 284.76C39.6166 284.76 41.0561 288.6 42.1845 290.099C43.3129 291.599 43.7252 291.961 43.6094 292.649C43.4937 293.338 40.774 293.461 38.6835 291.961C36.6004 290.462 36.3472 289.708 35.4069 288.556C34.4665 287.404 33.4973 286.629 33.2079 285.869C32.9114 285.108 35.7251 282.225 35.7251 282.225C35.7251 282.225 36.1591 284.369 39.6166 284.76Z" fill="#313280"/>
<path d="M25.1285 288.926C25.1285 288.926 25.4468 292.143 26.228 294.483C27.0092 296.823 27.7397 297.974 27.3781 298.989C27.0092 300.003 25.6348 300.459 23.3202 299.815C21.0055 299.17 20.5426 297.424 20.1303 295.265C19.718 293.106 19.6746 292.787 19.718 292.418C19.7614 292.048 20.7741 288.194 20.7741 288.194C20.7741 288.194 22.6041 289.752 25.1285 288.926Z" fill="#313280"/>
<path d="M50.5245 260.027L42.1194 283.651C42.1194 283.651 40.5425 283.811 38.4738 282.76C37.6637 282.362 36.774 281.761 35.8771 280.898C35.8771 280.898 38.7414 261.432 41.5335 257.933L30.7486 242.93C32.2025 248.82 33.6926 256.144 33.4322 260.679L27.0669 286.535C25.8228 287.904 23.9855 287.882 22.4737 287.527C21.0054 287.187 19.8553 286.535 19.8553 286.535C19.8553 286.535 23.6745 260.875 23.6889 260.846C22.4737 257.39 18.2061 244.929 17.6636 239.366C17.9312 235.685 18.8137 228.941 18.8137 228.941L21.8951 228.926L37.8373 228.832L38.1628 232.773L38.199 232.744C38.199 232.744 46.2424 243.843 50.199 252.782C51.2117 255.072 51.3346 257.658 50.5245 260.027Z" fill="#313280"/>
<path d="M39.2479 196.333C39.2479 196.333 41.1214 197.246 41.4252 199.789L47.8122 218.175L41.8302 221.631C41.8302 221.631 38.3799 215.133 37.8736 210.358C37.3745 205.577 39.2479 196.333 39.2479 196.333Z" fill="#D86A7D"/>
<path d="M32.0507 194.102L39.2479 196.333C39.2479 196.333 40.1593 200.702 40.1593 204.918C40.1593 209.135 38.6909 217.357 38.6909 217.357L37.794 229.441L18.8138 228.934C18.8138 228.934 16.9548 202.194 17.9675 196L26.5824 192.827L32.0507 194.102Z" fill="#FF8B9B"/>
<path d="M26.5388 193.189L27.197 187.894C26.6473 185.09 25.8878 179.823 27.5876 178.338C29.9457 176.281 38.8427 176.078 38.6908 183.337C38.6908 183.337 37.6781 189.328 36.0506 191.972C35.3996 193.037 33.8951 192.871 32.3399 192.298L31.4647 196.015L26.5388 193.189Z" fill="#FFB696"/>
<path d="M38.4665 182.33C38.4665 182.33 33.3743 183.018 31.5804 181.265C31.5804 181.265 31.848 183.242 31.0451 184.467C30.2495 185.684 29.2585 185.568 29.2585 185.568C29.2585 185.568 29.2585 183.626 28.4195 183.663C27.5804 183.699 27.4068 185.764 27.8191 186.959C28.2314 188.154 28.8028 188.154 28.8028 188.154L27.0524 189.031C27.0524 189.031 25.7214 183.127 25.7214 181.265C25.7214 179.396 26.7486 178.671 26.7486 178.671C26.7486 178.671 27.3562 176.693 29.9023 176.425C32.4484 176.157 35.4575 177.222 37.9674 178.555C40.4774 179.888 40.7812 181.185 40.5931 181.453C40.4051 181.721 39.8336 181.721 39.8336 181.721C39.8336 181.721 40.2532 184.264 38.4448 184.612C38.4448 184.612 38.6908 183.018 38.4665 182.33Z" fill="#313280"/>
<path d="M22.4737 287.527C21.0054 287.186 19.8553 286.534 19.8553 286.534C19.8553 286.534 23.6745 260.874 23.6889 260.845C22.4737 257.39 18.2061 244.929 17.6636 239.365C17.9312 235.685 18.8137 228.94 18.8137 228.94C18.8137 228.94 21.924 228.991 21.9385 229.02C21.9385 229.02 20.1518 234.301 21.0777 240.59C22.0108 246.878 26.5027 261.157 26.7414 262.475C26.9656 263.75 21.1645 280.558 22.4737 287.527Z" fill="#26295E"/>
<path d="M32.34 192.291C32.34 192.291 29.5262 191.284 28.991 189.031C28.991 189.031 28.9837 192.922 31.9711 193.834L32.34 192.291Z" fill="#D88C71"/>
<path d="M26.7993 191.074L31.4648 196.008L28.5209 197.819L25.4612 193.248L26.7993 191.074Z" fill="#FFEFCA"/>
<path d="M32.029 193.61L31.4648 196.008L33.7723 196.899L33.548 193.95L32.3039 192.581L32.029 193.61Z" fill="#FFEFCA"/>
<path d="M17.9674 196.008C17.9674 196.008 20.0289 197.457 20.9476 201.521C21.859 205.585 22.0615 220.719 22.0615 220.719L16.2821 221.632C16.2821 221.632 13.7504 209.345 14.5605 203.042C15.3707 196.74 17.9674 196.008 17.9674 196.008Z" fill="#D86A7D"/>
<path d="M64.6801 226.196C64.6439 225.964 64.4124 225.479 64.2027 224.935C63.9929 224.392 63.2985 223.972 62.6041 223.559C61.9097 223.146 58.1339 223.356 58.1339 223.356L58.0471 223.443L47.8264 218.176C44.7812 217.973 41.8445 221.632 41.8445 221.632C43.3056 223.182 52.1375 225.182 55.5805 225.913L57.4974 227.536L61.0851 228.673C61.0851 228.673 61.2949 228 61.0851 227.688C60.8753 227.377 59.2261 226.797 58.944 226.384C58.6619 225.978 58.7126 225.638 60.2894 225.616C61.8663 225.594 61.9459 226.275 62.3799 226.587C62.8211 226.899 63.0743 227.934 63.8555 228.065C64.6294 228.195 64.6294 228.195 64.6294 228.195L64.4486 227.007C64.4341 227.007 64.7162 226.428 64.6801 226.196Z" fill="#FFB696"/>
<path d="M22.0615 220.711L34.3147 227.398L31.472 230.665C31.472 230.665 20.3833 227.412 18.235 225.688C16.0867 223.964 16.2893 221.624 16.2893 221.624C16.2893 221.624 19.32 220.204 22.0615 220.711Z" fill="#FFB696"/>
<path d="M18.1983 233.606H91.9058V230.665H18.1983V233.606Z" fill="#FF8B9B"/>
<path d="M89.3748 198.818L83.9932 222.305C83.8268 223.037 83.1758 223.558 82.4308 223.558H45.266C44.2461 223.558 43.4794 222.616 43.6964 221.609L48.6946 198.123C48.7959 197.637 49.1141 197.239 49.5337 197.036C49.5337 197.029 49.5337 197.029 49.5337 197.029C49.7579 196.913 50.0111 196.848 50.2715 196.848H87.8051C88.8395 196.848 89.6062 197.811 89.3748 198.818Z" fill="#9A7BF0"/>
<path d="M81.2879 223.558H45.266C44.2461 223.558 43.4794 222.617 43.6964 221.61L48.6946 198.123C48.7959 197.637 49.1141 197.239 49.5337 197.036C49.7073 197.333 60.0147 215.64 81.2879 223.558Z" fill="#836CD8"/>
<path d="M71.8409 212.286L75.3925 230.665H57.1646L57.7722 229.195H65.114L62.6691 212.286H71.8409Z" fill="#5454C9"/>
<path d="M33.4468 227.543L40.1665 227.007L43.0309 229.137L43.4143 230.658H31.4648C31.4648 230.665 32.1158 228.34 33.4468 227.543Z" fill="#FFB696"/>
<path d="M85.3603 233.606L77.4687 299.032H53.6133L62.4235 233.606H85.3603Z" fill="#D86A7D"/>
<path d="M84.6441 239.532L60.2534 249.697L62.4234 233.606H85.3602L84.6441 239.532Z" fill="#BA5B70"/>
<path d="M44.5644 257.202C44.5644 257.202 41.389 266.511 39.9134 273.806C38.9369 278.638 38.597 281.42 38.474 282.76C37.6639 282.362 36.7742 281.761 35.8772 280.899C35.8772 280.899 38.7416 261.432 41.5337 257.933L30.7488 242.93L30.228 239.271L44.5644 257.202Z" fill="#26295E"/>
<path d="M164.435 64.7012C164.435 64.7012 192.247 80.5884 228.059 86.4855C228.059 86.4855 198.192 65.8965 164.435 64.7012Z" fill="#4343AA"/>
<path d="M230.619 135.922L230.583 139.53C230.583 139.53 225.621 142.015 224.189 142.638C222.757 143.261 222.446 144.231 223.451 144.579C224.456 144.927 236.977 145.028 237.165 144.579C237.672 143.413 235.849 139.573 235.849 139.573L235.538 135.922H230.619Z" fill="#313280"/>
<path d="M258.185 134.922L260.095 138.03C260.095 138.03 257.766 141.443 256.63 142.167C255.957 142.602 254.2 142.841 253.737 143.565C253.274 144.29 253.737 144.84 256.681 144.876C259.625 144.913 260.399 144.862 262.106 143.674C263.813 142.486 267.068 139.537 267.017 138.704C266.967 137.878 264.637 135.922 264.637 135.922L263.654 133.684L258.185 134.922Z" fill="#313280"/>
<path d="M243.56 82.8698C243.56 82.8698 243.097 97.9312 246.193 108.798C249.296 119.665 257.665 136.899 257.665 136.899L266.345 134.415C266.345 134.415 260.146 111.906 255.958 106.009C255.958 106.009 254.41 80.8631 252.703 77.4437C251.003 74.017 243.56 82.8698 243.56 82.8698Z" fill="#DD7385"/>
<path d="M221.99 24.2547C225.433 20.9223 232.261 21.8496 233.317 25.8196C234.2 29.1448 234.004 32.7163 232.941 35.2882L234.663 39.7725L230.106 43.4745L228.254 40.0768C227.285 40.526 226.294 40.7868 225.397 40.8302C223.097 40.9461 221.469 37.773 220.522 32.2382C219.574 26.6961 221.99 24.2547 221.99 24.2547Z" fill="#FF9F7F"/>
<path d="M227.473 82.7758C221.744 79.9794 213.983 76.5238 204.536 73.0681C201.903 72.1046 199.14 71.1411 196.254 70.192C183.458 65.9975 173.44 64.0414 166.496 63.1431C168.709 60.4409 170.981 57.8691 173.31 55.4712C183.965 44.474 195.777 37.0266 208.42 36.3818C209.136 36.9397 209.831 37.5265 210.504 38.135C211.646 39.1782 212.724 40.2939 213.722 41.4747C222.272 51.4505 226.258 66.2655 227.473 82.7758Z" fill="#D86A7D"/>
<path d="M204.861 73.5757C214.214 64.165 212.03 45.5321 210.829 38.6426C221.614 48.4662 226.438 64.8171 227.798 83.2834C222.069 80.487 214.308 77.0313 204.861 73.5757Z" fill="#BA5B70"/>
<path d="M243.386 44.3798C243.386 44.3798 250.807 53.1167 251.943 68.0839L236.796 73.8433C236.796 73.8433 227.241 58.1444 226.2 52.5589C225.158 46.9734 228.305 41.1488 228.305 41.1488L233.932 37.4033C233.932 37.3961 241.093 40.5982 243.386 44.3798Z" fill="#9A7BF0"/>
<path d="M237.556 44.3944C239.314 45.8288 239.574 48.4224 238.128 50.1683C235.133 53.7833 230.193 59.5789 226.786 62.6579C221.599 67.3523 203.48 61.8465 203.48 61.8465L204.341 57.0868L222.901 56.9926L231.712 45.1261C233.093 43.2643 235.755 42.931 237.556 44.3944Z" fill="#5454C8"/>
<path d="M220.16 27.7319C220.16 27.7319 219.567 24.8559 221.983 22.8129C224.399 20.7772 227.769 20.9511 229.382 21.5813C230.996 22.2116 231.343 22.4941 231.343 22.4941C231.343 22.4941 231.133 21.2988 232.392 20.4222C233.65 19.5456 236.283 21.2988 236.493 23.4432C236.703 25.5876 234.656 25.6238 234.656 25.6238C234.656 25.6238 235.061 27.5218 234.656 30.3979C234.25 33.274 232.934 35.288 232.934 35.288C232.934 35.288 231.299 34.4041 230.598 33.2088C230.598 33.2088 232.247 30.8905 231.683 29.3112C231.118 27.7319 229.368 28.3622 229.158 29.8763C228.948 31.3832 228.948 31.3832 228.948 31.3832L227.929 31.1369C227.929 31.1369 227.184 29.1736 227.466 26.9205C227.48 26.9278 220.652 28.9635 220.16 27.7319Z" fill="#313280"/>
<path d="M222.793 41.0764C224.652 41.9892 227.263 41.5691 228.305 39.9173C229.346 38.2656 228.999 32.4047 228.999 32.4047L227.914 31.9121L226.793 34.8606C226.793 34.8606 222.251 34.1217 221.05 34.7882C221.043 34.7882 220.934 40.1636 222.793 41.0764Z" fill="#313280"/>
<path d="M233.831 36.3311L228.305 41.1487L229.303 44.0537L235.697 38.2726L233.831 36.3311Z" fill="#5454C8"/>
<path d="M204.341 57.0864L202.8 56.8908C202.8 56.8908 199.596 55.652 198.59 55.3912C197.585 55.1304 197.295 55.7172 197.476 56.2388C197.476 56.2388 196.934 56.8111 197.245 57.5862C197.245 57.5862 196.731 58.1223 197.151 58.8033C197.151 58.8033 196.97 59.4988 197.353 59.9262C197.744 60.3537 198.474 60.6434 198.887 60.7014C199.292 60.7593 199.523 60.7014 199.523 60.7014C199.523 60.7014 200.377 61.2085 201.151 61.2085C201.925 61.2085 202.511 60.9332 202.511 60.9332L203.596 61.2085L204.341 57.0864Z" fill="#FF9F7F"/>
<path d="M251.943 68.0771L252.702 70.4461L237.824 76.191L236.796 73.8365L251.943 68.0771Z" fill="#5454C8"/>
<path d="M252.703 70.4453L237.824 76.1902L225.925 101.568C224.948 103.647 224.587 105.965 224.876 108.24L228.522 136.885H236.797C236.797 136.885 237.824 130.213 237.513 120.121C237.325 114.057 236.081 109.348 235.111 106.552C236.066 105.342 250.453 87.0353 252.703 81.783C255.032 76.3496 252.703 70.4453 252.703 70.4453Z" fill="#FF8B9B"/>
<path d="M326.634 300.111H331.596L262.258 147.237H270.316V144.26H208.109V147.237H217.824L232.29 179.671V179.823H232.363L240.457 197.971V198.333H240.623L248.623 216.27V216.843H248.876L256.782 234.57V235.352H257.13L264.949 252.87V253.862H265.39L273.115 271.169V272.372H273.65L281.282 289.469V290.882H281.911L286.019 300.089H290.981L286.801 290.882H322.519L326.634 300.111ZM271.647 176.853H235.082L228.037 161.313H264.717L271.647 176.853ZM258.439 147.237L263.394 158.336H226.692L221.657 147.237H258.439ZM272.97 179.823L279.9 195.363H243.473L236.428 179.823H272.97ZM281.231 198.34L288.16 213.88H251.871L244.826 198.34H281.231ZM289.491 216.85L296.421 232.389H260.269L253.224 216.85H289.491ZM297.752 235.36L304.681 250.899H268.667L261.621 235.36H297.752ZM306.012 253.877L312.942 269.416H277.065L270.019 253.877H306.012ZM285.455 287.926L278.41 272.386H314.265L321.195 287.926H285.455Z" fill="#D86A7D"/>
<path d="M228.059 82.5365V86.4847C228.059 86.4847 212.717 77.2407 196.984 72.1333C181.245 67.0332 164.435 64.7004 164.435 64.7004L165.809 62.7372L166.496 61.7592C166.496 61.7592 179.386 61.2593 198.605 68.0764C217.824 74.8935 228.059 82.5365 228.059 82.5365Z" fill="#9A7BF0"/>
<path d="M213.722 41.4747C210.8 39.7505 206.626 38.5552 201.165 39.9534C192.702 42.1267 180.037 50.6463 173.31 55.4712C183.964 44.474 195.776 37.0266 208.42 36.3818C209.136 36.9397 209.831 37.5265 210.503 38.135C211.646 39.1782 212.724 40.2939 213.722 41.4747Z" fill="#ED8EA3"/>
<path d="M228.059 82.5366V86.4849C228.059 86.4849 212.717 77.2408 196.984 72.1335C181.245 67.0333 164.435 64.7006 164.435 64.7006L165.809 62.7373C168.652 62.7373 175.907 63.2227 187.639 67.1347C203.154 72.3073 224.854 82.312 228.059 82.5366Z" fill="#826ADB"/>
<path d="M234.858 176.933H204.674V238.192H234.858V176.933Z" fill="#8CD3E8"/>
<path d="M208.109 181.186H231.755" stroke="#5454C8" stroke-width="0.5" stroke-miterlimit="10"/>
<path d="M234.858 238.192H204.674V176.933C204.674 176.933 213.448 222.957 234.858 238.192Z" fill="#71BBCC"/>
<path d="M208.421 183.562H231.756" stroke="#5454C8" stroke-width="0.5" stroke-miterlimit="10"/>
<path d="M208.109 227.405H231.755" stroke="#5454C8" stroke-width="0.5" stroke-miterlimit="10"/>
<path d="M208.421 229.781H231.756" stroke="#5454C8" stroke-width="0.5" stroke-miterlimit="10"/>
<path d="M208.109 232.39H231.755" stroke="#5454C8" stroke-width="0.5" stroke-miterlimit="10"/>
<path d="M208.421 234.766H231.756" stroke="#5454C8" stroke-width="0.5" stroke-miterlimit="10"/>
<path d="M224.775 197.254C224.052 191.357 218.265 187.524 218.265 187.524C218.265 187.524 212.479 191.357 211.755 197.254C211.032 203.151 215.01 217.857 215.01 217.857H218.265H221.52C221.52 217.864 225.499 203.158 224.775 197.254Z" stroke="white" stroke-width="0.5" stroke-miterlimit="10" stroke-linecap="round" stroke-linejoin="round" stroke-dasharray="1 1"/>
<path d="M213.281 210.598C213.281 210.598 209.99 212.959 209.137 213.814C208.283 214.669 208.283 219.248 208.283 219.248L210.569 215.676L214.352 215.299" stroke="white" stroke-width="0.5" stroke-miterlimit="10" stroke-linecap="round" stroke-linejoin="round" stroke-dasharray="1 1"/>
<path d="M223.263 210.598C223.263 210.598 226.554 212.959 227.408 213.814C228.262 214.669 228.262 219.248 228.262 219.248L225.976 215.676L222.186 215.299" stroke="white" stroke-width="0.5" stroke-miterlimit="10" stroke-linecap="round" stroke-linejoin="round" stroke-dasharray="1 1"/>
<path d="M222.193 200.462C222.193 202.542 220.508 204.23 218.432 204.23C216.356 204.23 214.67 202.542 214.67 200.462C214.67 198.383 216.356 196.695 218.432 196.695C220.508 196.695 222.193 198.383 222.193 200.462Z" fill="#FFE98A"/>
<path d="M231.755 186.72H224.001V189.168H231.755V186.72Z" fill="#FFE98A"/>
<path d="M230.33 191.805C230.33 192.638 229.65 193.319 228.818 193.319C227.987 193.319 227.307 192.638 227.307 191.805C227.307 190.972 227.987 190.291 228.818 190.291C229.65 190.291 230.33 190.972 230.33 191.805Z" fill="white"/>
<path d="M249.781 215.676C249.781 215.676 251.43 217.031 250.887 224.253C250.345 231.476 248.023 232.012 245.231 231.549L249.781 215.676Z" fill="#FFB696"/>
<path d="M242.815 208.425L241.875 213.677L236.334 214.902L236.594 211.098C235.314 211.163 234.142 211.011 233.535 210.381C233.354 210.193 233.223 209.961 233.151 209.686C232.384 206.679 233.195 200.652 233.195 200.652C235.205 193.675 242.374 196.254 244.016 198.92C245.202 200.847 244.175 205.911 242.815 208.425Z" fill="#FFB696"/>
<path d="M236.594 211.098C235.314 211.163 234.142 211.011 233.535 210.381C234.244 210.316 236.182 210.048 237.093 208.918C237.911 207.903 236.594 211.098 236.594 211.098Z" fill="#D88E75"/>
<path d="M246.251 207.222C246.164 207.403 246.07 207.584 245.969 207.758C244.146 210.982 241.202 211.018 238.837 210.127C236.471 209.236 236.782 207.794 236.782 207.794C236.782 207.794 237.441 208.149 238.099 207.179C238.49 206.599 238.678 205.549 238.562 204.766C238.482 204.237 238.258 203.832 237.867 203.803C237.766 203.795 237.665 203.803 237.578 203.832C236.84 204.006 236.587 205.078 236.587 205.078C236.088 204.303 236.356 203.564 236.356 203.564C234.265 202.948 234.15 201.666 234.15 201.666L233.954 202.593C232.869 202.361 231.517 200.731 232.211 198.717C232.826 196.928 234.229 196.312 234.547 196.196C234.591 196.174 234.612 196.167 234.612 196.167C236.008 195.247 240.739 193.943 243.603 195.457C246.468 196.971 246.2 199.376 246.2 199.376C247.705 200.919 247.784 204.15 246.251 207.222Z" fill="#313280"/>
<path d="M250.193 199.956C250.178 200.014 250.171 200.072 250.157 200.122C249.781 201.716 248.551 202.274 247.321 202.028C247.314 202.028 247.314 202.028 247.307 202.02C246.916 201.948 246.526 201.781 246.164 201.549C245.846 201.339 245.571 201.086 245.339 200.818C244.963 200.369 244.703 199.869 244.529 199.449C244.493 199.376 244.471 199.304 244.45 199.238C244.283 198.797 244.225 198.485 244.225 198.485C244.225 198.485 244.196 198.246 244.204 197.884C244.196 197.855 244.196 197.826 244.204 197.797C244.204 197.732 244.204 197.666 244.211 197.594C244.211 197.594 244.211 197.594 244.211 197.587C244.283 196.616 244.681 195.174 246.352 194.95C248.913 194.602 250.62 197.703 250.193 199.956Z" fill="#313280"/>
<path d="M247.234 238.127L247.242 238.671C247.242 238.671 244.023 239.888 239.574 239.649C237.831 239.554 236.146 239.323 234.742 239.083C232.558 238.7 231.046 238.287 231.046 238.287L232.081 232.817L231.647 228.919C230.591 228.086 229.166 226.753 228.876 225.413C228.58 224.022 229.556 219.791 230.294 216.923L230.012 214.423C230.337 214.322 230.685 214.22 231.053 214.126C231.119 214.112 231.191 214.09 231.256 214.075C235.35 213.032 241.658 212.322 241.658 212.322C245.151 212.706 249.781 215.676 249.781 215.676C249.535 218.096 247.075 228.688 247.075 228.688L247.162 233.838L247.234 238.127Z" fill="#9A7BF0"/>
<path d="M247.234 238.127L234.742 239.083C232.558 238.699 231.046 238.286 231.046 238.286L232.081 232.817L231.647 228.919C230.591 228.086 229.166 226.753 228.876 225.413C228.58 224.022 229.556 219.791 230.294 216.922L230.012 214.423C230.337 214.322 230.685 214.22 231.053 214.126C231.119 214.111 231.191 214.09 231.256 214.075C231.639 217.437 233.296 229.071 236.616 231.672C239.625 234.034 244.985 233.976 247.162 233.838L247.234 238.127Z" fill="#7961D1"/>
<path d="M230.012 214.423L219.263 221.769L209.137 212.453L209.151 212.438C209.151 212.438 208.587 210.301 208.413 209.838C208.24 209.374 207.249 208.15 206.96 208.092C206.67 208.034 206.75 208.425 206.844 208.671C206.938 208.925 207.271 209.954 207.271 209.954L205.274 208.947C205.274 208.947 204.79 207.606 204.464 207.57C204.131 207.534 204.233 208.831 204.558 209.374C204.558 209.374 204.11 209.707 204.254 210.265C204.254 210.265 203.878 210.635 204.11 211.2C204.11 211.2 203.589 211.721 204.536 212.772C205.484 213.822 206.8 214.735 206.8 214.735C207.965 216.423 214.764 226.08 218.793 227.21C223.213 228.449 229.564 223.508 229.564 223.508C229.564 223.508 234.171 219.806 230.012 214.423Z" fill="#FFB696"/>
<path d="M242.207 307.797C241.636 307.899 230.222 308.058 230.012 307.486C229.81 306.914 229.6 306.399 232.081 305.624C232.594 305.465 233.144 305.189 233.694 304.871C235.148 304.001 236.587 302.741 237.318 302.06L235.083 290.302L234.562 287.563H241.376C241.527 288.129 241.636 289.338 241.716 290.845C241.918 294.794 241.904 300.763 241.896 302.364C241.896 302.364 241.998 302.98 242.106 303.798C242.323 305.385 242.584 307.732 242.207 307.797Z" fill="#FFB696"/>
<path d="M259.459 307.486C258.974 307.798 251.328 307.573 249.209 307.508C248.884 307.494 248.688 307.124 248.884 306.863C249.252 306.364 250.048 305.842 251.09 305.262C251.343 305.125 251.596 304.922 251.842 304.676C252.703 303.835 253.506 302.509 253.911 301.792L251.242 290.31H251.234L250.497 287.122L256.855 287.897C257.072 288.484 257.26 289.556 257.433 290.86C257.911 294.49 258.207 299.901 258.301 301.582L258.323 301.589C258.323 301.589 258.547 302.314 258.8 303.248C259.256 304.907 259.82 307.255 259.459 307.486Z" fill="#FFB696"/>
<path d="M241.716 290.845C238.258 291.034 235.083 290.302 235.083 290.302L234.562 287.563H241.376C241.528 288.129 241.636 289.338 241.716 290.845Z" fill="#D88E75"/>
<path d="M257.433 290.86C254.352 290.969 251.582 290.382 251.242 290.31H251.234L250.497 287.122L256.855 287.897C257.072 288.484 257.26 289.556 257.433 290.86Z" fill="#D88E75"/>
<path d="M258.678 287.353C257.043 288.078 255.343 288.389 253.846 288.505C251.227 288.694 249.224 288.259 249.224 288.259L241.282 253.978L242.996 287.563C241.477 288.527 239.343 288.766 237.462 288.737C237.441 288.744 237.426 288.744 237.404 288.737C236.204 288.723 235.104 288.599 234.338 288.484C233.643 288.382 233.216 288.288 233.216 288.288C233.216 288.288 226.554 260.498 227.639 250.718C228.724 240.938 231.046 238.286 231.046 238.286C234.453 237.381 237.47 236.932 239.943 236.736C244.493 236.359 247.213 236.83 247.213 236.83C252.45 242.575 252.283 251.029 252.283 251.029L258.678 287.353Z" fill="#313280"/>
<path d="M242.207 307.798C241.636 307.9 230.222 308.059 230.012 307.487C229.81 306.914 229.6 306.4 232.081 305.625C232.594 305.465 233.144 305.19 233.694 304.871C233.687 305.06 233.788 305.27 234.251 305.284C235.104 305.313 236.732 304.85 239.155 303.806C241.484 302.814 242.063 303.727 242.106 303.799C242.323 305.386 242.584 307.733 242.207 307.798Z" fill="#313280"/>
<path d="M259.459 307.486C258.974 307.798 251.328 307.573 249.209 307.508C248.884 307.493 248.688 307.124 248.884 306.863C249.252 306.363 250.048 305.842 251.09 305.262C251.343 305.124 251.596 304.922 251.842 304.675C252.03 304.755 252.363 304.798 252.927 304.69C254.316 304.436 254.815 302.676 256.927 302.676C257.983 302.676 258.518 302.958 258.8 303.248C259.256 304.907 259.82 307.254 259.459 307.486Z" fill="#313280"/>
<path d="M253.846 288.505C251.228 288.694 249.224 288.259 249.224 288.259L241.282 253.978L246.967 249.696C246.967 249.696 246.367 261.186 248.117 270.292C249.564 277.834 252.783 285.941 253.846 288.505Z" fill="#26295E"/>
<path d="M232.095 252.855C230.656 267.424 237.303 288.252 237.462 288.738C237.462 288.745 237.462 288.745 237.462 288.745L237.404 288.738L234.338 288.484C233.643 288.383 233.216 288.288 233.216 288.288C233.216 288.288 226.555 260.498 227.639 250.718C228.724 240.938 231.046 238.287 231.046 238.287C234.453 237.381 237.47 236.932 239.943 236.736C237.665 238.04 233.166 241.96 232.095 252.855Z" fill="#26295E"/>
<path d="M219.364 222.189L218.265 224.928C218.265 224.928 217.39 222.494 219.364 222.189Z" fill="#D88E75"/>
<path d="M237.101 227.405H246.417C246.417 227.405 246.554 228.999 242.518 228.999C238.489 228.999 237.101 227.405 237.101 227.405Z" fill="#7961D1"/>
<path d="M236.587 205.078C236.088 204.303 236.356 203.564 236.356 203.564C234.265 202.948 234.15 201.666 234.15 201.666L233.954 202.593C232.869 202.361 231.517 200.731 232.211 198.717C232.826 196.928 234.229 196.312 234.547 196.196C234.67 197.5 235.198 201.217 237.578 203.832C236.84 204.006 236.587 205.078 236.587 205.078Z" fill="#26295E"/>
<path d="M246.251 207.222C246.164 207.404 246.07 207.585 245.969 207.759C244.146 210.982 241.202 211.019 238.837 210.128C236.471 209.236 236.783 207.795 236.783 207.795C236.783 207.795 237.441 208.15 238.099 207.179C238.49 206.599 238.678 205.549 238.562 204.767C239.256 205.324 240.074 205.788 241.028 206.107C243.43 206.918 245.101 207.194 246.251 207.222Z" fill="#26295E"/>
<path d="M250.157 200.122C249.781 201.716 248.551 202.274 247.321 202.027C247.314 202.027 247.314 202.027 247.307 202.02C246.425 201.767 245.788 201.325 245.339 200.818C244.949 200.383 244.696 199.905 244.529 199.448C244.493 199.376 244.472 199.304 244.45 199.238C244.276 198.688 244.218 198.188 244.204 197.884C244.197 197.855 244.197 197.826 244.204 197.797C244.189 197.645 244.197 197.558 244.197 197.558C244.204 197.565 244.204 197.579 244.211 197.587C244.211 197.594 244.211 197.594 244.211 197.594C245.289 199.992 248.746 200.158 250.157 200.122Z" fill="#26295E"/>
<path d="M63.6405 86.8325C91.7937 83.9862 119.211 89.9986 144.543 102.421C151.15 105.662 157.316 109.703 163.988 112.786C164.969 113.24 161.396 108.093 160.579 106.834C153.918 96.5772 159.714 108.44 162.508 112.832C167.548 120.756 164.368 117.5 158.729 116.273C155.701 115.614 141.092 115.335 149.369 119.161C153.878 121.245 162.595 123.564 161.997 115.514C161.724 111.829 162.007 106.454 160.92 102.939C159.345 97.8436 160.505 111.274 162.23 113.433" stroke="#363636" stroke-width="3" stroke-linecap="round" stroke-linejoin="round"/>
</g>
<defs>
<clipPath id="clip0">
<rect width="341" height="312" fill="white"/>
</clipPath>
</defs>
</svg>
