<svg width="752" height="141" viewBox="0 0 752 141" fill="none" xmlns="http://www.w3.org/2000/svg">
<path d="M0.90625 49H13.1477V31.3864H29.3523V49H41.5938V3.90909H29.3523V21.5227H13.1477V3.90909H0.90625V49ZM58.2057 49.5284C62.6091 49.5284 65.9337 48.0312 67.9813 44.2443H68.2455V49H79.6063V25.8381C79.6063 19.5852 73.6837 14.7415 64.0182 14.7415C53.9124 14.7415 48.9365 20.0256 48.5182 26.1903H59.7028C59.9891 24.0987 61.5303 23.108 63.842 23.108C65.9557 23.108 67.4528 24.0767 67.4528 25.8381V25.9261C67.4528 27.8857 65.2952 28.5021 59.6148 28.9205C52.6354 29.4268 47.1972 32.245 47.1972 39.6648C47.1972 46.402 51.7327 49.5284 58.2057 49.5284ZM62.1688 41.8665C60.0991 41.8665 58.646 40.8537 58.646 38.9602C58.646 37.2209 59.879 35.8778 62.6972 35.4375C64.6347 35.1293 66.2639 34.733 67.5409 34.2045V37.0227C67.5409 40.1051 64.9209 41.8665 62.1688 41.8665ZM86.9655 49H116.644V39.7528H102.642V39.5767L116.116 22.5795V15.1818H87.4939V24.429H101.761V24.6051L86.9655 42.3068V49ZM154.409 49.6165C164.427 49.6165 170.57 43.87 170.702 34.9091H159.429C159.165 38.4538 157.25 40.3693 154.586 40.3693C151.393 40.3693 149.301 37.6392 149.301 32.0909C149.301 26.5426 151.393 23.8125 154.586 23.8125C157.272 23.8125 159.099 25.728 159.429 29.2727H170.702C170.636 20.4659 164.361 14.7415 154.409 14.7415C143.401 14.7415 136.884 21.7869 136.884 32.179C136.884 42.571 143.401 49.6165 154.409 49.6165ZM176.916 49H189.07V31.3864C189.07 27.5114 191.734 24.9574 195.323 24.9574C196.578 24.9574 198.603 25.1555 199.814 25.5739V15.2038C198.845 14.9176 197.789 14.7415 196.732 14.7415C193.121 14.7415 190.303 16.8551 189.07 21.6108H188.718V15.1818H176.916V49ZM219.266 49.6165C228.645 49.6165 234.678 45.125 235.823 38.0795H224.726C224.022 39.995 222.018 41.0739 219.53 41.0739C215.92 41.0739 213.806 38.696 213.806 35.4375V34.9091H235.823V32.0909C235.823 21.3246 229.218 14.7415 219.002 14.7415C208.522 14.7415 201.829 21.6989 201.829 32.179C201.829 43.1214 208.434 49.6165 219.266 49.6165ZM213.806 28.2159C213.872 25.2876 216.294 23.2841 219.266 23.2841C222.283 23.2841 224.572 25.3097 224.638 28.2159H213.806ZM258.275 49.6165C268.293 49.6165 274.436 43.87 274.568 34.9091H263.295C263.031 38.4538 261.115 40.3693 258.451 40.3693C255.259 40.3693 253.167 37.6392 253.167 32.0909C253.167 26.5426 255.259 23.8125 258.451 23.8125C261.137 23.8125 262.965 25.728 263.295 29.2727H274.568C274.502 20.4659 268.227 14.7415 258.275 14.7415C247.266 14.7415 240.749 21.7869 240.749 32.179C240.749 42.571 247.266 49.6165 258.275 49.6165ZM296.987 49.6165C306.366 49.6165 312.398 45.125 313.543 38.0795H302.447C301.742 39.995 299.739 41.0739 297.251 41.0739C293.64 41.0739 291.526 38.696 291.526 35.4375V34.9091H313.543V32.0909C313.543 21.3246 306.938 14.7415 296.722 14.7415C286.242 14.7415 279.549 21.6989 279.549 32.179C279.549 43.1214 286.154 49.6165 296.987 49.6165ZM291.526 28.2159C291.592 25.2876 294.014 23.2841 296.987 23.2841C300.003 23.2841 302.293 25.3097 302.359 28.2159H291.526ZM319.703 49H331.856V31.3864C331.856 27.5114 334.52 24.9574 338.109 24.9574C339.364 24.9574 341.389 25.1555 342.6 25.5739V15.2038C341.632 14.9176 340.575 14.7415 339.518 14.7415C335.907 14.7415 333.089 16.8551 331.856 21.6108H331.504V15.1818H319.703V49ZM381.505 15.1818H375.692V7.07954H363.539V15.1818H359.223V23.9886H363.539V39.2685C363.451 46.358 367.832 49.9467 376.221 49.4844C378.973 49.3303 381.02 48.7578 382.121 48.4276L380.36 39.8849C379.897 39.995 378.709 40.2372 377.982 40.2372C376.397 40.2372 375.692 39.5327 375.692 38.1236V23.9886H381.505V15.1818ZM409.593 34.2045C409.615 37.5511 407.678 39.5767 404.661 39.5767C401.601 39.5767 399.839 37.5511 399.817 34.2045V15.1818H387.664V36.7585C387.686 44.1562 392.354 49.4403 399.465 49.4403C404.507 49.4403 408.382 46.8864 409.857 42.571H410.209V49H421.746V15.1818H409.593V34.2045ZM458.884 49.6165C468.263 49.6165 474.296 45.125 475.441 38.0795H464.344C463.639 39.995 461.636 41.0739 459.148 41.0739C455.537 41.0739 453.424 38.696 453.424 35.4375V34.9091H475.441V32.0909C475.441 21.3246 468.836 14.7415 458.62 14.7415C448.139 14.7415 441.446 21.6989 441.446 32.179C441.446 43.1214 448.051 49.6165 458.884 49.6165ZM453.424 28.2159C453.49 25.2876 455.911 23.2841 458.884 23.2841C461.9 23.2841 464.19 25.3097 464.256 28.2159H453.424ZM515.594 61.6818V15.1818H503.529V21.0824H503.265C501.944 17.6477 498.773 14.7415 493.753 14.7415C487.06 14.7415 480.543 19.8494 480.543 32.0909C480.543 43.804 486.62 49.4403 493.841 49.4403C498.597 49.4403 501.856 46.8864 503.265 43.4517H503.441V61.6818H515.594ZM503.705 32.0909C503.705 37.0227 501.68 40.1051 498.333 40.1051C494.986 40.1051 493.049 37.1108 493.049 32.0909C493.049 27.071 494.986 24.0767 498.333 24.0767C501.68 24.0767 503.705 27.071 503.705 32.0909ZM544.872 34.2045C544.894 37.5511 542.956 39.5767 539.94 39.5767C536.879 39.5767 535.118 37.5511 535.096 34.2045V15.1818H522.943V36.7585C522.965 44.1562 527.632 49.4403 534.744 49.4403C539.786 49.4403 543.661 46.8864 545.136 42.571H545.488V49H557.025V15.1818H544.872V34.2045ZM564.406 49H576.56V15.1818H564.406V49ZM570.483 11.6591C573.786 11.6591 576.472 9.17117 576.472 6.11079C576.472 3.05042 573.786 0.5625 570.483 0.5625C567.18 0.5625 564.494 3.05042 564.494 6.11079C564.494 9.17117 567.18 11.6591 570.483 11.6591ZM583.952 61.6818H596.105V43.4517H596.281C597.691 46.8864 600.949 49.4403 605.705 49.4403C612.926 49.4403 619.003 43.804 619.003 32.0909C619.003 19.8494 612.486 14.7415 605.793 14.7415C600.773 14.7415 597.602 17.6477 596.281 21.0824H596.017V15.1818H583.952V61.6818ZM595.841 32.0909C595.841 27.071 597.867 24.0767 601.213 24.0767C604.56 24.0767 606.497 27.071 606.497 32.0909C606.497 37.1108 604.56 40.1051 601.213 40.1051C597.867 40.1051 595.841 37.0227 595.841 32.0909ZM641.587 49.6165C652.596 49.6165 659.113 42.571 659.113 32.179C659.113 21.7869 652.596 14.7415 641.587 14.7415C630.579 14.7415 624.062 21.7869 624.062 32.179C624.062 42.571 630.579 49.6165 641.587 49.6165ZM641.675 40.6335C638.417 40.6335 636.479 37.397 636.479 32.0909C636.479 26.7848 638.417 23.5483 641.675 23.5483C644.758 23.5483 646.695 26.7848 646.695 32.0909C646.695 37.397 644.758 40.6335 641.675 40.6335Z" fill="#363636"/>
<path d="M695.001 49.6165C704.38 49.6165 710.413 45.125 711.557 38.0795H700.461C699.756 39.995 697.753 41.0739 695.265 41.0739C691.654 41.0739 689.54 38.696 689.54 35.4375V34.9091H711.557V32.0909C711.557 21.3246 704.952 14.7415 694.736 14.7415C684.256 14.7415 677.563 21.6989 677.563 32.179C677.563 43.1214 684.168 49.6165 695.001 49.6165ZM689.54 28.2159C689.606 25.2876 692.028 23.2841 695.001 23.2841C698.017 23.2841 700.307 25.3097 700.373 28.2159H689.54ZM729.87 29.9773C729.892 26.6307 731.786 24.6051 734.802 24.6051C737.862 24.6051 739.668 26.6307 739.646 29.9773V49H751.799V27.4233C751.821 20.0696 747.176 14.7415 739.998 14.7415C735.022 14.7415 731.081 17.3395 729.606 21.6108H729.254V15.1818H717.717V49H729.87V29.9773ZM1.08239 140H13.2358V120.273C13.2358 117.322 14.777 115.517 17.2869 115.517C19.7969 115.517 21.4261 117.322 21.4261 120.273V140H33.0511V120.273C33.0511 117.322 34.5923 115.517 37.1023 115.517C39.6122 115.517 41.2415 117.322 41.2415 120.273V140H53.3949V117.19C53.3949 110.255 48.9474 105.741 42.4744 105.741C37.4545 105.741 33.4034 108.472 32.2585 112.611H31.9062C31.2017 108.472 27.4148 105.741 22.6591 105.741C17.9695 105.741 14.3807 108.384 12.9716 112.611H12.6193V106.182H1.08239V140ZM76.7936 140.616C86.1728 140.616 92.2055 136.125 93.3504 129.08H82.2538C81.5493 130.995 79.5457 132.074 77.0578 132.074C73.447 132.074 71.3333 129.696 71.3333 126.438V125.909H93.3504V123.091C93.3504 112.325 86.7453 105.741 76.5294 105.741C66.0493 105.741 59.3561 112.699 59.3561 123.179C59.3561 134.121 65.9612 140.616 76.7936 140.616ZM71.3333 119.216C71.3994 116.288 73.8213 114.284 76.7936 114.284C79.8099 114.284 82.0997 116.31 82.1657 119.216H71.3333ZM111.663 120.977C111.685 117.631 113.579 115.605 116.595 115.605C119.655 115.605 121.461 117.631 121.439 120.977V140H133.592V118.423C133.614 111.07 128.969 105.741 121.791 105.741C116.815 105.741 112.874 108.339 111.399 112.611H111.047V106.182H99.5097V140H111.663V120.977ZM157.084 140.616C168.093 140.616 174.61 133.571 174.61 123.179C174.61 112.787 168.093 105.741 157.084 105.741C146.076 105.741 139.559 112.787 139.559 123.179C139.559 133.571 146.076 140.616 157.084 140.616ZM157.172 131.634C153.914 131.634 151.976 128.397 151.976 123.091C151.976 117.785 153.914 114.548 157.172 114.548C160.255 114.548 162.192 117.785 162.192 123.091C162.192 128.397 160.255 131.634 157.172 131.634ZM211.654 117.19C211.345 110.035 205.401 105.741 195.625 105.741C185.96 105.741 179.993 109.705 180.037 116.75C179.993 122.078 183.45 125.491 190.341 126.702L196.33 127.759C198.972 128.243 200.161 128.947 200.205 130.224C200.161 131.634 198.554 132.426 196.33 132.426C193.578 132.426 191.64 131.237 191.31 129.08H179.245C179.905 136.015 185.894 140.616 196.242 140.616C205.599 140.616 212.49 136.059 212.534 128.815C212.49 123.817 209.144 120.911 202.23 119.656L195.361 118.423C192.785 117.961 192.059 117.036 192.103 116.045C192.059 114.636 193.798 113.844 195.889 113.844C198.289 113.844 200.293 115.121 200.469 117.19H211.654ZM244.184 140.44C248.94 140.44 252.198 137.886 253.607 134.452H253.872V140H265.937V94.9091H253.783V112.082H253.607C252.286 108.648 249.116 105.741 244.096 105.741C237.403 105.741 230.886 110.849 230.886 123.091C230.886 134.804 236.962 140.44 244.184 140.44ZM248.675 131.105C245.329 131.105 243.391 128.111 243.391 123.091C243.391 118.071 245.329 115.077 248.675 115.077C252.022 115.077 254.048 118.071 254.048 123.091C254.048 128.023 252.022 131.105 248.675 131.105ZM289.308 140.616C298.687 140.616 304.72 136.125 305.865 129.08H294.768C294.064 130.995 292.06 132.074 289.572 132.074C285.961 132.074 283.848 129.696 283.848 126.438V125.909H305.865V123.091C305.865 112.325 299.26 105.741 289.044 105.741C278.564 105.741 271.871 112.699 271.871 123.179C271.871 134.121 278.476 140.616 289.308 140.616ZM283.848 119.216C283.914 116.288 286.336 114.284 289.308 114.284C292.324 114.284 294.614 116.31 294.68 119.216H283.848ZM347.505 125.205C347.527 128.551 345.589 130.577 342.573 130.577C339.513 130.577 337.751 128.551 337.729 125.205V106.182H325.576V127.759C325.598 135.156 330.265 140.44 337.377 140.44C342.419 140.44 346.294 137.886 347.769 133.571H348.121V140H359.658V106.182H347.505V125.205ZM379.193 120.977C379.215 117.631 381.108 115.605 384.125 115.605C387.185 115.605 388.99 117.631 388.968 120.977V140H401.122V118.423C401.144 111.07 396.498 105.741 389.321 105.741C384.345 105.741 380.404 108.339 378.929 112.611H378.576V106.182H367.039V140H379.193V120.977ZM417.745 140.528C422.148 140.528 425.473 139.031 427.52 135.244H427.785V140H439.145V116.838C439.145 110.585 433.223 105.741 423.557 105.741C413.451 105.741 408.476 111.026 408.057 117.19H419.242C419.528 115.099 421.069 114.108 423.381 114.108C425.495 114.108 426.992 115.077 426.992 116.838V116.926C426.992 118.886 424.834 119.502 419.154 119.92C412.174 120.427 406.736 123.245 406.736 130.665C406.736 137.402 411.272 140.528 417.745 140.528ZM421.708 132.866C419.638 132.866 418.185 131.854 418.185 129.96C418.185 128.221 419.418 126.878 422.236 126.438C424.174 126.129 425.803 125.733 427.08 125.205V128.023C427.08 131.105 424.46 132.866 421.708 132.866ZM490.616 117.19C490.308 110.035 484.363 105.741 474.587 105.741C464.922 105.741 458.955 109.705 458.999 116.75C458.955 122.078 462.412 125.491 469.303 126.702L475.292 127.759C477.934 128.243 479.123 128.947 479.167 130.224C479.123 131.634 477.516 132.426 475.292 132.426C472.54 132.426 470.602 131.237 470.272 129.08H458.207C458.867 136.015 464.856 140.616 475.204 140.616C484.561 140.616 491.452 136.059 491.496 128.815C491.452 123.817 488.106 120.911 481.193 119.656L474.323 118.423C471.747 117.961 471.021 117.036 471.065 116.045C471.021 114.636 472.76 113.844 474.852 113.844C477.251 113.844 479.255 115.121 479.431 117.19H490.616ZM513.558 140.616C522.937 140.616 528.97 136.125 530.114 129.08H519.018C518.313 130.995 516.31 132.074 513.822 132.074C510.211 132.074 508.097 129.696 508.097 126.438V125.909H530.114V123.091C530.114 112.325 523.509 105.741 513.293 105.741C502.813 105.741 496.12 112.699 496.12 123.179C496.12 134.121 502.725 140.616 513.558 140.616ZM508.097 119.216C508.163 116.288 510.585 114.284 513.558 114.284C516.574 114.284 518.864 116.31 518.93 119.216H508.097ZM536.274 140H548.427V120.273C548.427 117.322 549.968 115.517 552.478 115.517C554.988 115.517 556.618 117.322 556.618 120.273V140H568.243V120.273C568.243 117.322 569.784 115.517 572.294 115.517C574.804 115.517 576.433 117.322 576.433 120.273V140H588.586V117.19C588.586 110.255 584.139 105.741 577.666 105.741C572.646 105.741 568.595 108.472 567.45 112.611H567.098C566.393 108.472 562.606 105.741 557.85 105.741C553.161 105.741 549.572 108.384 548.163 112.611H547.811V106.182H536.274V140ZM605.204 140.528C609.607 140.528 612.932 139.031 614.979 135.244H615.244V140H626.604V116.838C626.604 110.585 620.682 105.741 611.016 105.741C600.91 105.741 595.935 111.026 595.516 117.19H606.701C606.987 115.099 608.528 114.108 610.84 114.108C612.954 114.108 614.451 115.077 614.451 116.838V116.926C614.451 118.886 612.293 119.502 606.613 119.92C599.633 120.427 594.195 123.245 594.195 130.665C594.195 137.402 598.731 140.528 605.204 140.528ZM609.167 132.866C607.097 132.866 605.644 131.854 605.644 129.96C605.644 128.221 606.877 126.878 609.695 126.438C611.633 126.129 613.262 125.733 614.539 125.205V128.023C614.539 131.105 611.919 132.866 609.167 132.866ZM645.765 120.977C645.787 117.631 647.68 115.605 650.697 115.605C653.757 115.605 655.562 117.631 655.54 120.977V140H667.694V118.423C667.716 111.07 663.07 105.741 655.893 105.741C650.917 105.741 646.976 108.339 645.501 112.611H645.148V106.182H633.611V140H645.765V120.977ZM684.317 140.528C688.72 140.528 692.045 139.031 694.092 135.244H694.356V140H705.717V116.838C705.717 110.585 699.795 105.741 690.129 105.741C680.023 105.741 675.047 111.026 674.629 117.19H685.814C686.1 115.099 687.641 114.108 689.953 114.108C692.067 114.108 693.564 115.077 693.564 116.838V116.926C693.564 118.886 691.406 119.502 685.726 119.92C678.746 120.427 673.308 123.245 673.308 130.665C673.308 137.402 677.844 140.528 684.317 140.528ZM688.28 132.866C686.21 132.866 684.757 131.854 684.757 129.96C684.757 128.221 685.99 126.878 688.808 126.438C690.746 126.129 692.375 125.733 693.652 125.205V128.023C693.652 131.105 691.032 132.866 688.28 132.866Z" fill="url(#paint0_linear)"/>
<defs>
<linearGradient id="paint0_linear" x1="425" y1="-19" x2="425" y2="188" gradientUnits="userSpaceOnUse">
<stop stop-color="#15579E"/>
<stop offset="1" stop-color="#00CA4E"/>
</linearGradient>
</defs>
</svg>
